<?xml version="1.0" encoding="UTF-8" standalone="no"?>
<!-- Created with Inkscape (http://www.inkscape.org/) -->

<svg
   xmlns:dc="http://purl.org/dc/elements/1.1/"
   xmlns:cc="http://creativecommons.org/ns#"
   xmlns:rdf="http://www.w3.org/1999/02/22-rdf-syntax-ns#"
   xmlns:svg="http://www.w3.org/2000/svg"
   xmlns="http://www.w3.org/2000/svg"
   xmlns:sodipodi="http://sodipodi.sourceforge.net/DTD/sodipodi-0.dtd"
   xmlns:inkscape="http://www.inkscape.org/namespaces/inkscape"
   width="240"
   height="240"
   id="svg9824"
   version="1.1"
   inkscape:version="0.48.4 r"
   sodipodi:docname="watom.svg"
   inkscape:export-filename="C:\Users\wwwzl_000\Dropbox\knowledge\watom\watom\res\watom.png"
   inkscape:export-xdpi="45"
   inkscape:export-ydpi="45">
  <defs
     id="defs9826" />
  <sodipodi:namedview
     id="base"
     pagecolor="#ffffff"
     bordercolor="#666666"
     borderopacity="1.0"
     inkscape:pageopacity="0.0"
     inkscape:pageshadow="2"
     inkscape:zoom="0.49497475"
     inkscape:cx="88.089712"
     inkscape:cy="-261.29613"
     inkscape:document-units="px"
     inkscape:current-layer="layer2"
     showgrid="false"
     fit-margin-top="0"
     fit-margin-left="0"
     fit-margin-right="0"
     fit-margin-bottom="0"
     inkscape:window-width="1858"
     inkscape:window-height="1057"
     inkscape:window-x="54"
     inkscape:window-y="-8"
     inkscape:window-maximized="1" />
  <metadata
     id="metadata9829">
    <rdf:RDF>
      <cc:Work
         rdf:about="">
        <dc:format>image/svg+xml</dc:format>
        <dc:type
           rdf:resource="http://purl.org/dc/dcmitype/StillImage" />
        <dc:title></dc:title>
      </cc:Work>
    </rdf:RDF>
  </metadata>
  <g
     inkscape:label="brain"
     inkscape:groupmode="layer"
     id="layer1"
     transform="translate(-263.61519,-235.1448)">
    <path
       inkscape:connector-curvature="0"
       id="path7104"
       d="m 315.64949,434.46843 c -1.96855,-0.62997 -6.55035,-3.38539 -7.0952,-4.267 -0.12753,-0.20621 -1.22157,0.39279 -2.43138,1.33106 -1.20984,0.93827 -2.95821,1.97279 -3.88528,2.29899 -2.15353,0.75775 -5.26139,0.75769 -7.41451,-1.9e-4 -2.26381,-0.79684 -5.18766,-3.71079 -6.53413,-6.51202 -0.903,-1.87854 -1.29328,-2.3148 -2.17079,-2.42631 -3.62682,-0.46093 -7.63954,-2.64413 -8.67695,-4.72086 -0.99373,-1.98916 -0.87009,-6.19731 0.3426,-11.65926 l 1.0173,-4.58203 -0.63209,-4.74002 c -0.93222,-6.99043 -0.83726,-11.7953 0.28711,-14.52912 l 0.90099,-2.19061 -1.32503,-1.27621 c -2.8151,-2.71136 -5.8655,-10.25572 -5.37322,-13.28924 0.51975,-3.20275 2.99955,-6.1371 7.92966,-9.38315 0.90344,-0.59484 0.90369,-0.59725 0.30615,-3.08158 -0.91378,-3.80026 -1.11149,-6.46387 -0.6963,-9.38137 0.54123,-3.80359 2.00636,-5.79314 6.33398,-8.60122 2.86605,-1.8597 3.56492,-2.52094 4.37956,-4.14387 1.58771,-3.16322 4.27343,-6.67243 6.38258,-8.33959 2.09275,-1.65424 7.75016,-4.62263 11.67177,-6.12408 l 2.34683,-0.89852 0.43625,-3.26049 c 0.71597,-5.35092 3.05907,-9.6044 6.75241,-12.25782 3.34316,-2.40178 9.43365,-4.75569 12.30506,-4.75569 0.75839,0 1.87629,-1.06178 5.23788,-4.9751 5.07551,-5.90852 7.20719,-7.84055 11.12194,-10.08041 3.41549,-1.95417 5.47737,-2.13893 8.84274,-0.79239 l 2.01029,0.80436 2.00595,-2.12102 c 1.29045,-1.36443 2.90913,-2.55479 4.53812,-3.33726 2.47722,-1.18988 2.6283,-1.21276 6.96198,-1.05422 4.3635,0.15957 7.95355,0.15323 19.16375,-0.0333 3.64972,-0.0609 6.30165,0.0777 7.41508,0.38689 2.35679,0.65459 2.81176,0.63298 6.36567,-0.30202 5.35822,-1.40993 20.54893,-3.96285 21.98119,-3.69414 1.69127,0.31729 7.63611,4.56801 9.8819,7.06569 0.95604,1.06346 1.8274,2.3995 1.93628,2.96893 0.26427,1.38106 -0.36896,3.16849 -1.60098,4.52055 -0.88011,0.96596 -0.90994,1.07662 -0.23666,0.87923 4.04561,-1.18592 6.07421,-1.50958 10.59307,-1.69009 4.49828,-0.17989 5.26844,-0.30488 5.70507,-0.9273 1.05591,-1.50472 2.71951,-1.98862 6.03285,-1.75484 1.70617,0.12056 3.60616,0.41055 4.22201,0.64472 1.43534,0.5457 8.34304,7.34173 9.89849,9.7385 1.47426,2.27148 2.9662,6.87061 3.11337,9.59653 0.10311,1.91277 0.21986,2.13262 1.70145,3.20903 2.13272,1.54948 4.31294,4.20852 5.3336,6.5052 l 0.83687,1.88279 3.43825,0.099 c 3.95824,0.11389 8.76476,1.26999 11.18894,2.69067 1.29429,0.75849 1.9063,1.49841 2.81576,3.40411 2.27285,4.76216 2.74241,8.85092 1.93723,16.86751 -0.47619,4.74154 -1.78048,9.34384 -3.90241,13.76978 -2.15211,4.4891 -6.55057,8.95686 -10.83261,11.00341 -1.6511,0.7891 -3.25442,1.33779 -3.56311,1.21933 -0.39066,-0.15006 -0.56125,0.0523 -0.56125,0.66565 0,2.02879 -1.21063,4.85065 -2.87528,6.70215 -0.9416,1.04731 -3.76171,3.38339 -6.26691,5.19128 -2.50524,1.80789 -8.19016,6.13646 -12.63291,9.61899 -9.50811,7.45296 -12.0452,9.21298 -15.73506,10.91589 -5.39082,2.48794 -9.86187,3.07603 -13.51883,1.77822 l -1.91597,-0.6799 -1.45809,1.84475 c -2.90869,3.67973 -12.05491,9.89145 -15.06372,10.23056 -2.38509,0.26871 -4.66562,-0.49799 -6.40673,-2.15417 l -1.53131,-1.45672 -1.45472,1.50758 c -2.92096,3.02683 -8.85413,6.78517 -13.86581,8.78341 -1.52947,0.60982 -4.90972,1.64555 -7.5114,2.30163 -4.14974,1.04642 -5.36897,1.56014 -9.93078,4.18413 -6.20477,3.56907 -7.16458,3.96231 -12.79611,5.24245 -9.31668,2.11781 -11.88651,1.51493 -12.81326,-3.00586 l -0.21954,-1.07079 -1.74767,1.20241 c -4.38108,3.0143 -15.6291,7.45125 -21.96016,8.66258 -3.79496,0.72612 -6.39271,0.67774 -9.03617,-0.16814 z m 14.1533,-4.06444 c 1.44391,-0.30456 4.92149,-1.36525 7.72795,-2.35705 4.96616,-1.75509 5.1619,-1.8673 7.3188,-4.1959 1.21888,-1.31589 2.78626,-3.3515 3.483,-4.52359 1.83606,-3.08856 7.50356,-16.85361 9.32443,-22.64694 1.46931,-4.67482 1.66684,-5.05955 3.32568,-6.47747 0.96996,-0.82911 2.83305,-2.07889 4.14019,-2.77728 1.96232,-1.04842 2.6231,-1.22355 3.79036,-1.00455 1.72492,0.3236 2.15902,1.32307 1.20622,2.77725 -0.55716,0.85027 -2.56733,2.08361 -3.39608,2.08361 -0.11262,0 -0.20494,-0.43336 -0.20494,-0.96301 0,-0.81321 -0.17989,-0.96299 -1.15562,-0.96299 -0.63558,0 -1.48226,0.32661 -1.88146,0.72584 -1.2448,1.24477 -7.31486,17.50068 -7.9467,21.28159 -0.1545,0.92533 -0.62495,2.54911 -1.04515,3.60841 -1.12976,2.84819 -1.88235,7.55563 -1.44927,9.06568 0.87035,3.03476 2.79118,3.3574 10.10045,1.69672 6.16204,-1.40003 8.41763,-2.28694 13.00768,-5.11472 5.27519,-3.24983 6.63131,-3.82767 11.99892,-5.11314 7.07394,-1.69409 8.80844,-2.54591 12.2496,-6.01575 4.71252,-4.75175 6.56269,-9.6437 6.57129,-17.37584 0,-2.71123 0.17766,-3.70991 0.93116,-5.32827 0.51002,-1.09544 1.29309,-2.18741 1.74019,-2.42665 0.69646,-0.3728 0.98453,-0.26332 2.01413,0.76641 l 1.2014,1.2014 -0.34514,4.69208 c -0.18971,2.58062 -0.33825,6.2521 -0.32962,8.15885 0.0159,3.05497 0.14308,3.70162 1.09556,5.44352 1.32998,2.43379 2.30515,3.0122 4.46354,2.64752 2.76376,-0.46693 7.45245,-4.69563 9.14543,-8.24831 1.15879,-2.43166 1.43442,-7.10281 0.53618,-9.08756 l -0.52311,-1.15559 -0.30996,1.08392 c -0.17068,0.59618 -0.50865,1.32335 -0.7515,1.61598 -0.41747,0.50285 -2.78886,1.38547 -5.07814,1.88993 l -1.03653,0.22842 0.59555,-1.74811 c 0.44405,-1.30283 1.1974,-2.25981 2.95789,-3.7573 4.04558,-3.4411 5.68352,-5.29423 6.83923,-7.73801 0.85779,-1.81376 1.05975,-2.67269 0.87194,-3.70864 -0.61969,-3.41724 -3.47993,-7.01537 -6.70958,-8.44043 -3.87195,-1.7085 -12.81809,-2.47726 -17.91574,-1.53956 -1.25711,0.23128 -3.50407,0.98231 -4.99325,1.66903 -4.72945,2.18094 -6.13986,4.6332 -7.1064,12.35557 -0.50649,4.04736 -1.62391,8.07134 -2.99497,10.78565 -2.27235,4.49833 -6.86598,9.26833 -12.26496,12.73601 -1.88708,1.21193 -4.10301,2.80517 -4.92447,3.54046 -1.59663,1.42906 -3.86859,2.5482 -5.9543,2.93299 -1.08611,0.2005 -1.46633,0.0552 -2.46079,-0.93922 -0.64694,-0.64691 -1.02225,-1.30797 -0.83402,-1.469 0.5858,-0.5011 6.46333,-2.32688 7.2891,-2.26422 1.15946,0.0879 4.70886,-2.42161 7.61415,-5.38334 5.06029,-5.15879 6.81691,-8.41782 6.81738,-12.6482 1.6e-4,-1.49826 -0.27791,-3.54113 -0.61845,-4.53977 -0.87488,-2.5679 -3.81415,-5.62817 -7.02736,-7.31661 -4.12313,-2.1667 -6.73924,-2.71694 -12.96216,-2.72642 -6.65171,-0.01 -8.33124,0.48019 -11.73144,3.42479 -5.78412,5.00904 -8.45458,9.21145 -11.75901,18.50453 -3.60045,10.12577 -6.5907,14.72572 -11.33338,17.43434 -1.63337,0.93285 -2.36305,1.13678 -3.4608,0.96705 -1.78006,-0.27538 -4.48324,-1.6452 -6.2061,-3.14529 -1.54736,-1.34727 -1.31551,-1.7255 1.30505,-2.1292 6.53772,-1.00718 9.36864,-3.38561 13.51099,-11.35138 3.51261,-6.75478 6.14678,-10.86277 10.06898,-15.70263 3.50852,-4.3293 4.6628,-6.33373 5.97419,-10.37382 1.22973,-3.78878 1.17063,-6.8466 -0.17702,-9.14604 -2.03609,-3.47434 -4.99052,-4.69858 -12.16069,-5.03903 -2.63071,-0.12467 -4.8704,-0.31439 -4.97706,-0.42102 -0.34067,-0.3407 1.61807,-2.16448 3.21178,-2.99038 1.31561,-0.68183 2.2726,-0.80302 6.54842,-0.82923 4.40519,-0.0254 5.2314,0.0727 6.86791,0.8279 4.39695,2.02933 6.08919,4.36776 6.76554,9.34923 0.45729,3.36794 1.37202,6.40432 2.29991,7.63446 l 0.65503,0.86838 3.21236,-0.76724 c 1.76681,-0.42201 3.30493,-0.85981 3.41807,-0.97294 0.48955,-0.48959 0.64164,-3.25297 0.3109,-5.64698 -0.25285,-1.83067 -0.20843,-3.72307 0.15197,-6.44613 0.58386,-4.41179 0.3648,-8.37762 -0.60028,-10.86354 -0.96967,-2.49787 -3.73883,-6.5664 -5.69913,-8.37333 -2.20987,-2.03698 -3.63795,-2.39198 -9.63225,-2.39458 -14.46887,-0.006 -26.06992,4.86092 -30.24162,12.68789 -1.09832,2.06061 -2.21362,6.06815 -1.80306,6.47871 0.0933,0.0933 0.68497,-0.845 1.31538,-2.08463 0.63045,-1.23966 1.53363,-2.66364 2.00709,-3.16442 1.01276,-1.07117 3.65559,-2.34318 4.89338,-2.35521 0.86143,-0.01 0.85791,0.0127 -0.35485,2.20642 -0.67368,1.21821 -2.65225,4.31094 -4.39687,6.87274 -6.26606,9.2012 -6.71129,10.04661 -6.71129,12.7436 0,2.5533 0.63288,6.15797 1.13579,6.46878 0.16655,0.10311 1.64126,-0.0688 3.27688,-0.38172 1.70364,-0.32597 5.18313,-0.56902 8.1459,-0.56902 l 5.17202,0 0.76328,-1.2519 c 0.85756,-1.40647 1.04169,-4.11478 0.28457,-4.18658 -0.2649,-0.0254 -0.74148,-0.0222 -1.05927,0.01 -0.31782,0.0285 0.0222,-0.47001 0.75582,-1.10993 2.92122,-2.54855 4.90083,-0.53251 3.2819,3.34221 -0.60506,1.44799 -4.15367,5.20942 -6.12529,6.49254 -0.97251,0.63292 -1.98102,0.7437 -7.46036,0.81949 -6.07193,0.0841 -9.60214,0.50925 -11.53404,1.38947 -1.19848,0.54608 -2.36549,3.29903 -2.80558,6.61852 -0.67603,5.09858 -1.17278,22.95227 -0.77435,27.82918 0.61385,7.51254 1.27015,9.80817 3.34513,11.70035 4.60217,4.19666 9.56011,5.43229 16.18764,4.03432 z m -25.49414,-2.03456 c 1.58153,-0.77568 2.07019,-1.2006 1.88263,-1.63714 -2.02381,-4.71131 -2.13745,-10.93511 -0.48898,-26.7832 0.22049,-2.11864 0.5307,-6.38649 0.68964,-9.48416 0.26395,-5.14718 0.37861,-5.78511 1.33004,-7.40861 0.57261,-0.97707 1.65948,-2.2561 2.4153,-2.84228 0.75582,-0.58619 1.71833,-1.33068 2.13891,-1.65437 0.73796,-0.56804 0.74335,-0.67086 0.15418,-2.9446 -0.79792,-3.07934 -0.78938,-6.74803 0.019,-8.33089 0.34644,-0.67803 1.40266,-2.43322 2.34708,-3.90045 l 1.71725,-2.66763 -0.90261,-0.72749 c -1.76902,-1.42579 -6.1836,-3.31864 -8.74909,-3.75137 -2.41533,-0.40741 -2.7887,-0.37118 -5.08417,0.4932 -1.36256,0.51309 -3.90749,1.65208 -5.65532,2.53112 -3.82326,1.92277 -4.1749,1.38512 -0.76083,-1.16326 2.86576,-2.1391 7.76542,-4.64231 10.83095,-5.53346 2.65622,-0.77219 5.59727,-0.40193 8.93113,1.12437 l 2.08491,0.95451 0.23889,-1.03719 c 0.4117,-1.78746 3.2273,-6.72652 5.05302,-8.86393 l 1.75002,-2.04872 -1.45434,-1.48933 c -1.84818,-1.89275 -5.24883,-3.70483 -7.60597,-4.05298 -3.06902,-0.45332 -6.40362,0.41519 -9.77993,2.54721 -3.6522,2.30616 -5.11228,2.81027 -7.39484,2.55301 -2.06613,-0.23286 -3.24409,-1.34993 -3.96659,-3.76148 l -0.46417,-1.54924 -1.76459,0.25063 c -2.67874,0.38061 -4.13159,1.22078 -5.6221,3.25125 -1.98199,2.70003 -2.75831,6.16524 -2.18497,9.75294 0.24238,1.51725 0.62663,3.41099 0.85369,4.2083 l 0.41287,1.44972 3.54354,-2.45353 c 3.32003,-2.29874 6.9675,-4.08397 7.4199,-3.63161 0.44279,0.44282 -5.00756,4.88018 -8.88107,7.23035 -5.03925,3.05747 -6.07345,3.87643 -7.48363,5.92606 -3.02188,4.39218 -1.93219,8.85197 2.73064,11.17555 2.79184,1.39124 4.12147,1.29521 7.1866,-0.51905 4.08578,-2.41841 8.06097,-3.95984 10.21199,-3.95984 1.87159,0 2.67976,0.50237 2.3193,1.44175 -0.30298,0.78974 -3.68437,2.10442 -6.33944,2.46485 -3.10043,0.42084 -4.89306,1.3106 -7.67748,3.81073 -4.03296,3.62123 -5.34003,7.73598 -4.59069,14.45193 1.05864,9.48787 0.94586,10.79999 -1.60167,18.63591 -1.6657,5.12351 -1.99865,7.89964 -1.13992,9.5044 0.72147,1.34831 1.94406,1.6188 3.65239,0.80813 1.34143,-0.63656 1.55333,-0.94969 1.3974,-2.06511 -0.26618,-1.90481 1.0192,-7.63675 2.92318,-13.0349 l 2.14297,-6.07571 -0.23857,-3.57196 c -0.27633,-4.13594 -0.019,-4.48609 2.47087,-3.36337 1.03164,0.46521 1.92144,0.59456 2.8683,0.41693 0.75497,-0.14181 1.37272,-0.17735 1.37272,-0.0793 0,0.0977 -0.37588,1.01584 -0.83526,2.03974 -0.50592,1.12757 -0.94696,3.15271 -1.1186,5.13585 -0.15767,1.82204 -0.81225,4.96098 -1.47594,7.0773 -1.38661,4.42163 -1.5954,9.06219 -0.61696,13.71334 0.71921,3.41921 1.35606,4.65865 3.49014,6.7927 1.49825,1.49825 1.89053,1.69193 3.42695,1.69193 1.10759,0 2.50736,-0.3788 3.87087,-1.04753 z m -9.96841,-44.50364 c 0.70128,-1.18744 3.03571,-3.83113 3.69404,-4.18353 0.49843,-0.26681 1.14372,-0.25095 2.05578,0.0501 1.19658,0.39492 1.32875,0.58004 1.32345,1.85335 -0.01,2.23831 -0.36941,2.52951 -2.21454,1.7912 -1.1876,-0.47517 -1.76024,-0.52743 -2.34582,-0.21414 -1.65539,0.88596 -2.81208,1.20955 -2.51291,0.70303 z m 152.80154,10.33096 c 3.13987,-1.29111 5.66801,-2.88977 11.12667,-7.0359 2.60856,-1.98126 6.82277,-5.10365 9.36522,-6.93866 5.25964,-3.79636 11.20372,-9.33588 11.98905,-11.17311 0.29155,-0.68174 0.52974,-1.89513 0.52943,-2.69641 0,-2.27489 -0.99684,-6.93591 -1.71729,-8.03544 -0.88516,-1.35104 -0.51356,-2.08846 1.05236,-2.08846 0.97545,0 1.60421,0.33594 2.61212,1.3954 1.35539,1.42464 4.62197,3.21648 5.87612,3.22327 0.89732,0.003 3.53234,-2.86618 5.34251,-5.82077 1.77344,-2.8945 3.69912,-8.11639 4.38664,-11.89473 0.82888,-4.55547 0.71765,-12.49017 -0.21669,-15.46374 -1.73758,-5.5294 -3.25198,-6.77442 -9.55075,-7.8526 -5.02983,-0.86092 -5.83548,-0.72511 -6.8906,1.16197 -1.64637,2.94421 -2.57506,7.31102 -2.63426,12.38497 l -0.0539,4.67562 3.49763,0.16053 c 4.56086,0.20907 6.88352,1.28198 8.2141,3.79435 l 0.90931,1.71684 -1.54622,1.44451 c -2.18469,2.041 -3.67694,1.99725 -5.19857,-0.15228 -1.59666,-2.25572 -3.83766,-3.17531 -7.79626,-3.19916 -3.90856,-0.0222 -4.0696,0.10659 -6.83613,5.52588 l -2.08564,4.08527 -0.04,5.31602 c -0.0447,5.86394 -0.28743,7.36153 -1.79234,11.05078 -1.47827,3.62313 -3.13276,5.90747 -7.17578,9.90737 -4.26018,4.21475 -6.24725,5.76236 -9.79665,7.63078 l -2.64861,1.3941 2.11858,-1.84069 c 1.16523,-1.01242 4.02531,-3.75496 6.35584,-6.09453 4.4023,-4.41946 6.164,-7.09303 7.75146,-11.76319 1.42442,-4.19013 0.53879,-16.98487 -1.44797,-20.92027 -1.30276,-2.58046 -3.27178,-5.06977 -4.90632,-6.20249 -2.64797,-1.83501 -4.67469,-2.24528 -10.8169,-2.18963 -5.18671,0.0469 -5.63181,0.10913 -6.50653,0.91048 -1.25248,1.14721 -3.94011,5.33991 -5.17475,8.07245 -1.0285,2.27638 -2.24681,3.33177 -4.83926,4.19213 -2.143,0.71124 -2.28576,0.0222 -0.69135,-3.33428 1.43934,-3.03083 2.83867,-5.0744 5.17643,-7.55946 l 1.33118,-1.41516 -0.8816,-1.42646 c -1.09192,-1.76671 -3.22445,-2.75168 -6.3437,-2.92991 -1.90414,-0.1085 -2.28544,-0.0317 -2.16517,0.44574 0.88348,3.49481 0.11833,5.76623 -2.39969,7.12216 -1.74958,0.94224 -2.36958,0.63853 -3.72139,-1.82283 -2.10334,-3.8297 -3.32473,-4.21094 -10.28334,-3.21004 -5.08427,0.73129 -4.93646,0.66997 -9.12649,3.78956 -4.53381,3.37565 -8.44317,5.13541 -13.44102,6.05043 -4.37524,0.80106 -7.21901,1.83955 -8.60635,3.143 -1.11264,1.04516 -2.74394,4.75404 -3.29244,7.48551 -0.79874,3.97713 0.78396,8.90121 3.79325,11.80089 1.41304,1.36155 5.94824,3.31286 9.74621,4.19339 1.68067,0.38965 5.02107,-0.28108 5.02107,-1.00838 0,-1.56081 5.82241,-5.17731 11.14034,-6.91956 l 2.08811,-0.68412 -2.28081,-1.03843 c -2.33005,-1.06086 -6.71053,-4.70544 -6.71053,-5.58321 0,-0.61635 2.55628,-2.38769 3.92966,-2.72287 0.88977,-0.21732 1.3178,0.0222 2.95418,1.65967 2.18053,2.1805 4.40031,3.37533 7.46511,4.01817 1.87381,0.39302 2.70993,0.32684 7.08102,-0.56086 6.21003,-1.26111 9.47058,-1.55498 11.97781,-1.07951 6.49902,1.23252 15.53218,0.74252 18.20921,-0.98777 2.84656,-1.83999 4.75607,-1.39244 3.33196,0.78092 -0.6623,1.01086 -3.90089,2.96909 -6.02838,3.64512 -1.77169,0.56299 -9.61899,1.5892 -12.15224,1.5892 -1.94135,0 -1.9884,0.0254 -1.80107,1.00601 0.10597,0.55328 0.94839,1.76211 1.87261,2.68626 0.92409,0.92415 1.68019,1.85817 1.68019,2.07561 0,0.24841 1.72249,0.39536 4.63457,0.39536 5.50818,0 5.88161,0.29219 3.38485,2.64819 -1.63899,1.54657 -2.73747,1.95925 -3.20427,1.20378 -0.13071,-0.21192 -0.92133,-0.38517 -1.75618,-0.38517 -1.42769,0 -1.51811,0.0682 -1.51811,1.14781 0,1.51716 -1.01898,4.07544 -2.3731,5.95801 -1.01622,1.41272 -1.0916,1.76725 -1.06438,5.00759 0.0492,5.78384 1.02606,7.28418 5.74875,8.82348 1.66392,0.54237 5.68924,0.18813 7.8204,-0.68818 z m -90.88763,-21.5134 -0.5866,-1.1343 -0.47277,0.91057 c -0.26014,0.50085 -0.79249,1.39819 -1.18325,1.99412 l -0.71036,1.08354 1.76976,-0.85982 1.76975,-0.85981 -0.58653,-1.1343 z m 111.70854,-28.42513 c 0.60474,-0.85452 1.77388,-2.00002 2.5981,-2.5455 l 1.49872,-0.99179 -0.23096,-2.55019 c -0.50094,-5.5348 1.79495,-14.44035 4.52121,-17.53752 1.72801,-1.96321 1.8669,-3.0617 0.69307,-5.48632 -1.02345,-2.11426 -4.59488,-5.38435 -6.44013,-5.89684 -1.9209,-0.53349 -8.03924,-0.46896 -9.6933,0.10247 -2.33297,0.80566 -4.00732,3.60949 -5.41189,9.06253 -0.38977,1.51285 -0.62847,1.76005 -2.54984,2.63963 -1.16587,0.53377 -2.22901,0.86121 -2.36251,0.72768 -0.34853,-0.34857 0.61001,-4.74567 1.45333,-6.66716 0.39374,-0.89687 1.18125,-2.241 1.75021,-2.98695 1.20213,-1.57611 5.33112,-4.41893 8.37007,-5.7629 2.36806,-1.04725 7.75365,-1.92112 9.35786,-1.51846 1.01759,0.25539 1.0442,0.22176 0.83688,-1.0567 -0.11834,-0.72625 -1.02253,-2.78854 -2.01026,-4.58282 -1.46872,-2.66786 -2.21762,-3.57025 -4.1098,-4.95204 -1.27259,-0.92932 -2.98356,-2.57605 -3.80213,-3.6594 -1.75262,-2.31964 -3.10462,-3.19989 -5.42604,-3.53284 l -1.69818,-0.24365 1.92596,1.02916 c 4.06669,2.17301 5.97067,5.43331 5.97067,10.22431 0,3.27368 -1.1197,5.07973 -4.94937,7.98359 -4.58225,3.47457 -5.24302,3.1977 -2.41327,-1.01139 1.27615,-1.89828 1.39182,-2.29922 1.38982,-4.81502 0,-4.36782 -1.36767,-6.75764 -4.88034,-8.55017 -2.62643,-1.3402 -4.90277,-1.7379 -9.91492,-1.73229 -4.41433,0.003 -9.82699,0.97009 -11.02734,1.9662 -0.26649,0.22112 -2.63578,0.44285 -5.26513,0.49256 l -4.78069,0.0904 4.83837,-1.88041 c 2.66116,-1.03421 5.14194,-2.22765 5.51262,-2.6521 1.06821,-1.22278 0.83148,-2.67503 -0.73412,-4.50414 -1.9412,-2.2679 -7.66704,-6.51589 -9.16022,-6.79602 -0.67581,-0.12659 -3.55787,0.12404 -6.40473,0.55794 -2.84666,0.43366 -6.90919,0.97444 -9.02776,1.20178 -4.71238,0.50564 -7.34868,1.23088 -8.82891,2.42891 -0.96038,0.77714 -1.11587,1.15873 -1.06342,2.60847 0.10754,2.97226 0.42571,3.7377 1.92673,4.63399 0.77935,0.46541 1.85557,1.24769 2.39128,1.73845 l 0.97421,0.8922 2.22422,-1.74571 c 4.97986,-3.9085 9.33603,-5.073 5.24765,-1.40282 -2.49077,2.23596 -3.1906,3.6455 -2.96668,5.97517 0.16782,1.74733 0.3893,2.1641 1.82848,3.44126 2.51494,2.23177 3.86012,2.48519 7.53706,1.41989 5.62864,-1.6308 12.00339,-0.95924 17.82133,1.87727 2.95142,1.43908 6.35581,4.68161 7.61304,7.25122 0.8884,1.81572 1.00071,2.43192 0.82045,4.49821 -0.40272,4.61534 -1.63642,7.4088 -5.8886,13.33318 -1.07818,1.50218 -1.24089,3.67484 -0.36836,4.9205 0.31408,0.44846 1.38382,1.35374 2.37726,2.01172 l 1.80617,1.19632 5.42297,-0.0127 c 3.09202,-0.01 6.74774,-0.25919 8.50468,-0.58504 1.69498,-0.3144 3.89936,-0.67851 4.89896,-0.80912 2.5231,-0.32981 3.13476,-1.13531 3.31749,-4.36912 0.1231,-2.18158 0,-2.94786 -0.74287,-4.42454 -1.05943,-2.12133 -0.85303,-2.65869 1.53346,-3.99261 2.00674,-1.12154 3.25519,-0.88351 4.29295,0.81848 0.88253,1.44749 1.04357,5.59809 0.31186,8.04022 -0.57353,1.91436 -3.50572,4.68647 -6.3198,5.97482 l -2.12089,0.97098 1.81648,1.59898 c 2.07457,1.8261 4.56179,5.47357 5.21165,7.64274 0.24301,0.81074 0.54434,1.4704 0.66968,1.46586 0.12595,-0.003 0.72258,-0.70738 1.32738,-1.56189 z m -75.17799,-3.10209 c 0.78148,-0.39167 2.47123,-1.79741 3.75508,-3.12387 1.93596,-2.00033 2.85361,-3.46946 5.37899,-8.61239 2.3508,-4.78703 3.38269,-6.47931 4.52673,-7.42295 2.29173,-1.89021 5.1744,-2.81496 9.4749,-3.03952 l 3.75568,-0.19606 0,0.94738 c 0,1.89935 -2.82975,3.37048 -6.54838,3.40436 -1.9826,0.0159 -3.06725,0.52429 -4.18911,1.95525 -0.84027,1.07167 -3.99826,8.0788 -3.75188,8.32511 0.0815,0.0809 1.85725,-0.19511 3.94765,-0.61305 5.22903,-1.04554 9.53305,-1.57097 12.27515,-1.49848 3.90688,0.10343 5.91699,-0.8409 9.07208,-4.26125 1.49977,-1.62582 3.23244,-3.71787 3.85045,-4.64893 2.80573,-4.22715 3.61926,-9.13931 2.01901,-12.19171 -2.51659,-4.80049 -10.38788,-8.6497 -17.68779,-8.6497 -3.80905,0 -12.25393,1.60399 -14.5132,2.7566 -2.34756,1.19762 -5.88041,4.96339 -9.04254,9.63875 -3.60512,5.33024 -4.2571,5.85021 -7.01798,5.59587 -1.16511,-0.10723 -3.13324,-0.57835 -4.37353,-1.04664 l -2.25483,-0.85147 2.16838,-0.88133 c 2.32945,-0.94677 2.41834,-1.00537 5.61569,-3.70308 1.16527,-0.98316 2.65613,-2.05921 3.31334,-2.39122 2.71428,-1.3716 6.10404,-6.99066 6.11727,-10.14061 0.0159,-2.06842 -2.34664,-5.60983 -4.84357,-7.28244 -5.59479,-3.74791 -16.4555,-4.72844 -22.54383,-2.03529 -4.47175,1.97806 -10.9333,6.74641 -10.9333,8.0683 0,0.76359 0.15608,0.77209 9.91892,0.5411 8.60157,-0.20336 10.57645,-0.13705 14.87048,0.50196 3.11357,0.46321 5.08046,0.93538 5.29873,1.27198 0.68644,1.0587 0.15989,2.0294 -1.58331,2.91852 -3.77678,1.92635 -7.69137,1.98381 -16.56362,0.24302 -2.64822,-0.5196 -6.72959,-1.04233 -9.06967,-1.16165 -7.22349,-0.3683 -9.86302,0.94947 -11.69169,5.83707 -1.07085,2.86205 -1.06009,3.43412 0.0568,3.02839 0.47667,-0.17322 1.99342,-0.31313 3.37051,-0.31123 2.14757,0.002 2.99396,0.23763 5.94909,1.64717 3.95543,1.88669 10.26597,5.98888 11.96278,7.77649 1.14204,1.20308 1.10575,1.19407 -3.08165,-0.76774 -5.26386,-2.46622 -10.06964,-4.10438 -13.44158,-4.58187 -3.11173,-0.4407 -5.45196,0.0695 -9.50405,2.07216 -3.31264,1.63714 -4.69275,2.56329 -6.77147,4.54417 l -1.59746,1.52224 0.95832,1.4032 c 1.13376,1.66002 1.07409,3.68624 -0.18337,6.22774 -0.68145,1.37741 -0.70074,1.5537 -0.14562,1.33347 2.43465,-0.96606 6.64943,-1.3909 14.4869,-1.46034 8.01163,-0.0711 8.59807,-0.0285 10.31922,0.76765 2.50461,1.15689 5.29267,3.07039 9.09131,6.23954 1.84577,1.53993 3.81206,2.83654 4.62248,3.04818 0.7812,0.20431 4.15884,0.27918 7.57335,0.16878 4.94249,-0.1599 6.44474,-0.3406 7.58415,-0.91169 z m -61.32652,-4.05669 c 0.97849,-0.65734 1.14683,-0.90112 0.62235,-0.90112 -0.65322,0 -0.69824,-0.23762 -0.49219,-2.60012 0.12468,-1.43004 0.33994,-3.30481 0.47813,-4.16611 l 0.25127,-1.56602 -2.30426,-1.03408 c -2.41476,-1.0837 -4.10663,-1.31627 -4.53482,-0.62346 -0.47258,0.76461 -3.36975,2.67097 -4.05917,2.67097 -0.37683,0 -0.95711,-0.27189 -1.28959,-0.60449 -0.54913,-0.54913 -0.48118,-0.7207 0.74291,-1.87515 1.42363,-1.34267 1.63355,-2.24877 0.89601,-3.86751 -0.74364,-1.63204 -2.53792,-2.45625 -5.92517,-2.72173 -2.61688,-0.20494 -3.55249,-0.0952 -6.44937,0.75858 -6.25683,1.84377 -10.11898,4.39193 -12.22686,8.06709 -1.46973,2.56247 -1.4854,3.23736 -0.0514,2.21632 1.34385,-0.95689 7.3858,-3.6415 7.63491,-3.3924 0.0999,0.0999 -0.5485,0.76331 -1.44064,1.47446 -3.67456,2.92918 -3.91003,3.25855 -3.612,5.05235 0.728,4.38159 2.70114,5.22021 6.67836,2.83829 4.18619,-2.50708 7.23808,-3.51518 10.64339,-3.51559 3.75585,-4.1e-4 5.58118,0.7844 8.90337,3.82843 2.53129,2.31933 2.01953,2.32291 5.53477,-0.0387 z m -22.33477,-8.55318 c 0,-0.60903 1.62969,-2.41612 2.45809,-2.7257 2.71973,-1.01641 2.82915,-0.9737 1.39394,0.54371 -1.7064,1.80408 -3.85203,3.01947 -3.85203,2.18199 z m 31.44346,-10.16349 c 3.58957,-3.67552 4.7647,-5.14448 5.31535,-6.6447 0.38886,-1.05933 0.85753,-2.09069 1.04154,-2.29195 0.66581,-0.72831 0.36154,-3.54046 -0.50186,-4.63812 -2.17666,-2.76712 -6.49619,-3.21258 -11.29741,-1.16504 l -1.54079,0.65709 1.34819,-1.4269 c 1.80525,-1.91064 3.69483,-3.078 6.17405,-3.81425 4.47788,-1.32979 7.92119,-0.1472 9.73159,3.34244 l 0.55094,1.06196 1.07725,-1.64063 c 0.5925,-0.90236 2.19947,-2.73017 3.57111,-4.0618 l 2.49378,-2.42113 -1.26323,-2.77906 c -1.68168,-3.69953 -3.4146,-5.76947 -5.84335,-6.97978 -3.1643,-1.57683 -3.54884,-1.45145 -7.27292,2.37101 -3.26106,3.34722 -7.50236,8.18552 -7.17552,8.18552 0.0939,0 0.90759,-0.26014 1.8083,-0.57781 2.06445,-0.72837 2.53226,-0.73053 1.93333,-0.01 -0.93038,1.12104 -4.5287,2.51624 -9.98365,3.87106 -5.71324,1.41897 -7.05271,1.93676 -9.16621,3.54326 -2.5658,1.95023 -4.71955,6.54831 -5.32062,11.35905 l -0.27378,2.19115 2.83473,-0.23 c 2.32656,-0.18877 3.08571,-0.42655 4.23467,-1.32637 1.68083,-1.31637 5.23306,-3.01985 6.3041,-3.02305 0.42369,-0.001 1.33794,0.34371 2.03158,0.76664 1.51167,0.92164 1.62781,0.93528 1.62781,0.1913 0,-0.31779 -0.26014,-0.57781 -0.5778,-0.57781 -0.93339,0 -0.66246,-0.99338 0.40332,-1.47896 1.21938,-0.5556 3.64128,-0.58654 3.64128,-0.0466 0,1.03139 -1.68657,3.52273 -2.97956,4.40135 -1.79815,1.22187 -2.52462,1.22421 -4.1124,0.0127 -1.6505,-1.25888 -3.37394,-1.24606 -5.05695,0.0378 l -1.31193,1.00061 1.62655,0.85645 c 1.20637,0.6352 1.87149,1.35498 2.57515,2.78692 l 0.94871,1.93054 1.74771,-0.16275 c 1.16831,-0.10882 2.3862,0.091 3.67373,0.60281 1.05931,0.42112 2.02695,0.78342 2.15033,0.80509 0.12341,0.0222 2.29817,-2.08403 4.83285,-4.67933 z m 27.68489,-28.8696 c 6.82423,-3.74842 10.55882,-4.65884 18.36507,-4.47683 l 5.2684,0.12278 0.22525,-1.13008 c 0.27378,-1.37319 0.0254,-1.55231 -3.25059,-2.33275 -3.60959,-0.86023 -24.85574,-1.59562 -25.71514,-0.89005 -1.01905,0.83659 -2.78969,3.87148 -2.78969,4.78151 0,0.47065 0.32553,1.61513 0.7234,2.54334 0.39786,0.92822 0.84661,2.41685 0.99715,3.30804 l 0.27379,1.62036 1.02513,-0.7153 c 0.56382,-0.39339 2.75853,-1.66741 4.87714,-2.83115 z"
       style="fill:#de6a00;fill-opacity:1" />
    <g
       id="g11107"
       style="fill:#fdf100;fill-opacity:1;stroke:#00c7fa;stroke-opacity:1"
       transform="matrix(3.1725116,0,0,3.1725116,-572.70706,-1072.2576)">
      <path
         transform="translate(263.61519,423.86529)"
         inkscape:connector-curvature="0"
         id="path11091"
         d="M 10.620624,48.898904 C 9.9672947,48.296687 9.6197545,47.539555 9.4074802,46.256018 9.2187857,45.115058 9.3083274,43.986843 9.7176291,42.348175 9.8841195,41.681618 10.08311,40.719136 10.159831,40.209323 c 0.07672,-0.509812 0.245282,-1.227923 0.374582,-1.595805 l 0.23509,-0.668873 -0.711526,-0.07642 C 9.6666385,37.826189 9.1759888,37.777217 8.9676449,37.759394 l -0.3788073,-0.0324 -0.019633,1.224727 C 8.5522076,40.012022 8.48741,40.351064 8.0865558,41.477099 7.515075,43.08244 7.0108556,45.125606 7.0106378,45.836867 7.0105115,46.262965 6.9484612,46.411232 6.702963,46.572089 6.2725323,46.854117 5.7280384,46.763677 5.5249626,46.376421 5.3069828,45.960744 5.4053477,45.196641 5.8844458,43.583936 6.6152487,41.12396 6.6790943,40.608299 6.5007136,38.606531 6.2188887,35.443925 6.4910931,34.345172 7.8583121,33.126589 8.7083922,32.368926 9.1815934,32.131806 10.309323,31.898398 11.822441,31.585224 12.513243,31.17468 12.187506,30.782191 11.798123,30.313013 10.350616,30.662817 8.45219,31.684865 7.2971437,32.306704 6.8862916,32.355267 6.0612923,31.967471 5.009499,31.47307 4.4894296,30.504384 4.7520897,29.52894 5.0054383,28.588075 5.5285993,28.023327 7.1028921,26.99127 9.47979,25.43305 10.776629,24.279334 10.151254,24.279334 c -0.2443669,0 -1.6528288,0.759172 -2.4822714,1.337965 -0.5090543,0.355222 -0.8106156,0.497592 -0.8410833,0.397084 -0.5720795,-1.887201 -0.4288485,-3.425916 0.4313511,-4.633955 0.2756215,-0.387074 1.0704923,-0.814957 1.736072,-0.934536 0.3843421,-0.06905 0.4145612,-0.04607 0.5547496,0.421835 0.2362477,0.788524 0.690867,1.136145 1.507954,1.153045 0.608526,0.01258 0.862895,-0.07576 2.213441,-0.768787 1.444085,-0.741022 1.57243,-0.782649 2.393652,-0.776346 1.008549,0.0077 2.05271,0.445982 2.887408,1.211863 l 0.49351,0.452822 -0.322713,0.343458 c -0.472289,0.502651 -1.29516,1.826567 -1.615164,2.598634 l -0.278449,0.671807 -1.089979,-0.377355 c -1.019543,-0.352969 -1.141901,-0.368558 -1.893467,-0.241245 -1.357625,0.229979 -4.5629475,1.979558 -4.5629475,2.49062 0,0.21982 0.455546,0.07074 1.9571705,-0.640506 0.866019,-0.41019 1.13627,-0.478861 1.894036,-0.481279 0.943034,-0.003 2.028007,0.358139 2.991546,0.995779 l 0.467179,0.309165 -0.669064,1.065696 c -0.43183,0.687825 -0.695943,1.261789 -0.744867,1.618727 -0.06825,0.497933 0.0708,1.988404 0.234604,2.514724 0.0427,0.137198 -0.149133,0.384606 -0.57407,0.740383 -1.173703,0.98268 -1.232208,1.165672 -1.518751,4.750353 -0.565984,7.080528 -0.582621,8.022878 -0.167906,9.510329 0.18764,0.673001 0.185801,0.690333 -0.09579,0.902737 -0.341965,0.257945 -1.083623,0.494527 -1.550282,0.494527 -0.21613,0 -0.531395,-0.18065 -0.886499,-0.507974 l 0,0 z M 10.2561,35.072711 c 0.364978,-0.152497 0.547183,-0.163125 0.885036,-0.05162 0.63118,0.208308 0.793832,0.09162 0.793832,-0.569521 0,-0.535109 -0.02415,-0.574923 -0.410375,-0.676634 -0.225705,-0.05944 -0.51014,-0.08276 -0.632077,-0.05183 -0.247498,0.06279 -1.2303913,1.18223 -1.2303913,1.401323 0,0.181604 0.044915,0.177693 0.5939753,-0.05172 l 0,0 z"
         style="color:#000000;fill:#fdf100;fill-opacity:1;fill-rule:nonzero;stroke:#00c7fa;stroke-width:1;stroke-linecap:butt;stroke-linejoin:miter;stroke-miterlimit:4;stroke-opacity:1;stroke-dasharray:none;stroke-dashoffset:0;marker:none;visibility:visible;display:inline;overflow:visible;enable-background:accumulate" />
      <path
         inkscape:connector-curvature="0"
         id="path11093"
         d="m 281.83153,473.64822 c -1.41634,-0.35789 -2.72549,-1.40265 -3.04259,-2.42813 -0.46071,-1.4899 -0.56359,-4.18864 -0.33091,-8.68079 0.18198,-3.51345 0.46109,-4.43927 1.43685,-4.766 0.25816,-0.0865 1.55962,-0.21767 2.89213,-0.2916 2.24556,-0.12459 2.45555,-0.15696 2.87149,-0.44262 1.08503,-0.74518 1.88722,-1.87471 1.88722,-2.65731 0,-0.84213 -0.53816,-1.0117 -1.23112,-0.38794 -0.34983,0.31488 -0.3562,0.41594 -0.0316,0.50083 0.31298,0.0818 0.31627,0.37908 0.0116,1.04997 l -0.2354,0.51835 -2.31878,0.0739 c -1.27533,0.0407 -2.43879,0.11029 -2.58547,0.15474 -0.34308,0.10397 -0.4183,-0.0928 -0.51505,-1.34739 -0.0518,-0.67162 -0.0235,-1.10798 0.0904,-1.39471 0.0912,-0.22951 0.8971,-1.54175 1.79098,-2.9161 1.40369,-2.15819 1.86771,-2.95111 1.86771,-3.19152 0,-0.14007 -0.50112,-0.0249 -1.09527,0.25175 -0.52535,0.2446 -0.75604,0.4608 -1.17755,1.10362 -0.41889,0.63882 -0.50865,0.72332 -0.44678,0.42062 0.17541,-0.85816 0.83216,-1.93438 1.64369,-2.69353 1.52617,-1.42766 3.89425,-2.29964 6.89717,-2.53969 1.86835,-0.14936 3.153,-0.0616 3.79313,0.259 0.61445,0.30778 1.5153,1.35881 2.09659,2.44612 l 0.47399,0.8866 0.005,3.03046 c 0.007,4.12475 0.086,3.78258 -0.93226,4.0337 -0.46233,0.11401 -0.92968,0.23378 -1.03858,0.26615 -0.29607,0.088 -0.67745,-0.80135 -1.00459,-2.34268 -0.42516,-2.00312 -0.76318,-2.51303 -2.10327,-3.17281 -0.55285,-0.2722 -0.76582,-0.29897 -2.32903,-0.2928 -1.44133,0.006 -1.77943,0.0442 -2.08344,0.23731 -0.43846,0.27854 -1.05738,0.84288 -1.05738,0.96415 0,0.0482 0.49719,0.12659 1.10486,0.17412 2.95374,0.23102 3.74703,0.56199 4.38946,1.83133 0.40964,0.80938 0.19308,2.4133 -0.51431,3.80927 -0.16556,0.32672 -0.84554,1.32082 -1.51107,2.20912 -1.19988,1.60152 -1.63436,2.28335 -3.25835,5.11344 -0.88707,1.54586 -1.74522,2.50038 -2.55042,2.83681 -0.24225,0.10122 -0.81247,0.26202 -1.26714,0.35732 -0.45467,0.0953 -0.85891,0.20552 -0.8983,0.24491 -0.27111,0.27111 1.02793,1.23211 2.01938,1.49389 0.57809,0.15264 0.64129,0.14287 1.29709,-0.20049 0.78711,-0.4121 1.75371,-1.40974 2.30498,-2.37898 0.20733,-0.36455 0.79734,-1.71408 1.31112,-2.99896 0.51378,-1.28488 1.18069,-2.76223 1.48202,-3.28299 0.6708,-1.15931 2.44736,-2.96837 3.35116,-3.41247 0.58857,-0.28921 0.76393,-0.31013 2.58851,-0.30877 1.70797,10e-4 2.06474,0.0383 2.80197,0.29086 1.84781,0.63299 3.23674,1.91768 3.51323,3.24955 0.26261,1.26498 -0.0194,2.39952 -0.87527,3.52143 -1.20846,1.58408 -2.6168,2.75786 -3.65147,3.04332 -1.24975,0.34481 -2.16727,0.71316 -2.16727,0.87009 0,0.0836 0.1398,0.28333 0.31066,0.44385 0.25404,0.23866 0.40396,0.27933 0.82265,0.22317 0.70571,-0.0947 1.20912,-0.37953 3.09044,-1.74886 2.72699,-1.98486 4.03295,-3.51069 4.61837,-5.39592 0.13702,-0.44125 0.38586,-1.55594 0.55297,-2.47708 0.16711,-0.92114 0.40091,-1.867 0.51955,-2.10191 0.82481,-1.63309 2.90617,-2.36023 6.05021,-2.1137 2.34217,0.18366 3.37232,0.61532 4.19211,1.75661 0.22683,0.3158 0.48103,0.83068 0.56488,1.14418 0.14071,0.5261 0.12604,0.6277 -0.19044,1.31898 -0.26073,0.56949 -0.64069,1.03653 -1.58559,1.94895 -1.17318,1.13284 -1.64694,1.76485 -1.64694,2.19705 0,0.1667 0.0778,0.16582 0.66291,-0.007 0.94559,-0.28003 1.32541,-0.50204 1.53134,-0.89507 l 0.18035,-0.34421 0.0917,0.61148 c 0.2288,1.52572 -0.23898,2.7915 -1.4359,3.88541 -0.69102,0.63155 -1.4928,1.1192 -1.84018,1.1192 -0.45871,0 -0.84953,-0.3269 -1.1673,-0.97641 l -0.33397,-0.6826 0.088,-2.47217 0.088,-2.47218 -0.34502,-0.36012 c -0.41703,-0.43528 -0.5518,-0.4461 -0.90284,-0.0724 -0.42386,0.45118 -0.61317,1.17792 -0.69801,2.67962 -0.12476,2.20842 -0.58405,3.41007 -1.80915,4.73333 -1.20622,1.30286 -1.67133,1.54613 -4.34366,2.27197 -0.99127,0.26925 -1.82002,0.59647 -2.58852,1.02205 -2.89107,1.60102 -4.58365,2.20134 -6.63252,2.35239 -0.9389,0.0692 -0.96171,0.0639 -1.24517,-0.29326 -0.25517,-0.32147 -0.28054,-0.45918 -0.21822,-1.18451 0.17367,-2.02116 2.68877,-9.36012 3.41405,-9.96205 0.27979,-0.2322 0.64072,-0.1197 0.68833,0.21455 0.0331,0.23211 0.0946,0.2717 0.31568,0.20311 0.47425,-0.14713 0.9654,-0.56167 1.04601,-0.88283 0.20438,-0.81433 -0.86943,-0.9376 -2.04153,-0.23436 -1.32864,0.79717 -1.4636,0.9926 -2.32369,3.36494 -0.98684,2.72199 -2.29821,5.81774 -2.79873,6.60698 -0.64718,1.0205 -1.35352,1.7754 -1.97804,2.11405 -0.32699,0.1773 -1.36161,0.55916 -2.29916,0.84856 -1.80813,0.55813 -3.18127,0.72746 -4.07269,0.50221 l 0,0 z"
         style="color:#000000;fill:#fdf100;fill-opacity:1;fill-rule:nonzero;stroke:#00c7fa;stroke-width:1;stroke-linecap:butt;stroke-linejoin:miter;stroke-miterlimit:4;stroke-opacity:1;stroke-dasharray:none;stroke-dashoffset:0;marker:none;visibility:visible;display:inline;overflow:visible;enable-background:accumulate" />
      <path
         inkscape:connector-curvature="0"
         id="path11095"
         d="m 298.8468,445.23751 c -0.41669,-0.29412 -1.09854,-0.80494 -1.51523,-1.13516 -0.41669,-0.33021 -1.1376,-0.80912 -1.60204,-1.06423 l -0.84442,-0.46383 -2.88052,0.007 c -1.96429,0.005 -3.14157,0.0631 -3.70126,0.18325 -0.45141,0.0969 -0.8357,0.16261 -0.85397,0.14591 -0.0183,-0.0167 0.0528,-0.23612 0.15784,-0.48762 0.26165,-0.62624 0.23882,-1.33251 -0.0589,-1.82075 l -0.24898,-0.40834 0.72691,-0.60494 c 0.88111,-0.73327 2.49625,-1.5842 3.41208,-1.79763 1.16123,-0.27063 2.77311,0.11177 5.37824,1.27593 0.75848,0.33894 1.41193,0.58246 1.4521,0.54116 0.21972,-0.22594 -2.45478,-2.07735 -4.15698,-2.87764 -0.72514,-0.34093 -0.94209,-0.38371 -1.86247,-0.36725 -1.20564,0.0216 -1.22651,-0.008 -0.74078,-1.03505 0.36273,-0.76729 0.86011,-1.24263 1.52176,-1.45437 0.66699,-0.21344 2.9459,-0.0933 4.99583,0.26347 3.28177,0.57109 5.68211,0.21892 5.68211,-0.83366 0,-0.63678 -1.59179,-0.87226 -5.92392,-0.87636 -2.54302,-0.002 -3.4749,-0.0428 -3.5115,-0.15212 -0.0824,-0.24611 1.5949,-1.53306 2.75971,-2.1175 1.29847,-0.6515 2.51154,-0.89609 3.87335,-0.78098 2.48962,0.21045 4.16323,1.07171 4.93652,2.54038 0.4431,0.84155 0.28312,1.59498 -0.61622,2.90211 -0.45763,0.66516 -2.4656,2.21031 -3.71099,2.85566 l -0.87341,0.45259 0.49151,0.19569 c 0.74321,0.2959 1.9045,0.50614 2.30719,0.41769 0.43531,-0.0956 0.74367,-0.42207 1.79214,-1.89737 0.4442,-0.62504 1.1869,-1.51676 1.65046,-1.98162 0.73503,-0.7371 0.9533,-0.87817 1.70661,-1.10301 2.92364,-0.87259 5.24317,-0.81881 7.24806,0.16807 2.00766,0.98824 2.74352,2.37837 2.20266,4.16111 -0.46736,1.54047 -2.46187,3.81841 -3.5993,4.11079 -0.24307,0.0625 -1.01015,0.15015 -1.70463,0.19482 -0.69448,0.0447 -1.93728,0.19461 -2.76178,0.33318 -0.82449,0.13858 -1.53151,0.21952 -1.57115,0.17989 -0.12799,-0.12799 1.03891,-2.35771 1.38824,-2.65266 0.22361,-0.1888 0.58752,-0.31478 1.07329,-0.37155 1.37502,-0.16071 1.82642,-0.41181 2.00152,-1.11342 0.0857,-0.34327 0.0797,-0.34721 -0.52681,-0.34474 -1.89156,0.008 -3.46024,0.54285 -4.07368,1.38968 -0.19154,0.26441 -0.74141,1.23541 -1.22193,2.15778 -0.902,1.73138 -1.78983,2.8685 -2.65912,3.40575 -0.39382,0.2434 -0.67089,0.27879 -2.61057,0.33347 l -2.17,0.0612 -0.75761,-0.53476 z"
         style="color:#000000;fill:#fdf100;fill-opacity:1;fill-rule:nonzero;stroke:#00c7fa;stroke-width:1;stroke-linecap:butt;stroke-linejoin:miter;stroke-miterlimit:4;stroke-opacity:1;stroke-dasharray:none;stroke-dashoffset:0;marker:none;visibility:visible;display:inline;overflow:visible;enable-background:accumulate" />
      <path
         inkscape:connector-curvature="0"
         id="path11097"
         d="m 283.25367,444.16813 c -1.66436,-1.47819 -3.25606,-1.5618 -5.77314,-0.30326 -1.63048,0.81525 -1.88372,0.81012 -2.24115,-0.0453 -0.34105,-0.81624 -0.27075,-1.01374 0.65802,-1.84867 1.04051,-0.93539 0.83147,-1.01167 -0.71841,-0.26217 -0.57876,0.27988 -1.07713,0.48404 -1.10748,0.45368 -0.0304,-0.0304 0.0394,-0.23806 0.15493,-0.46155 0.74299,-1.43679 3.35631,-2.81061 5.36433,-2.82002 1.12051,-0.005 1.79509,0.19623 2.1446,0.64055 0.35268,0.44836 0.31991,0.72801 -0.15444,1.31828 -0.39624,0.49306 -0.40138,0.51443 -0.16527,0.68708 0.37198,0.272 0.62861,0.21828 1.26012,-0.26376 0.67199,-0.51294 0.99044,-0.54261 1.8509,-0.17245 l 0.62644,0.26949 -0.0836,1.15104 c -0.046,0.63307 -0.10375,1.17422 -0.12843,1.20255 -0.0247,0.0283 0.0148,0.12342 0.0877,0.2113 0.1,0.12044 -0.004,0.23987 -0.42256,0.48512 -0.30534,0.17894 -0.5909,0.32535 -0.63456,0.32535 -0.0437,0 -0.3668,-0.25525 -0.71807,-0.56723 z m -4.82462,-2.64136 c 0.42418,-0.2216 1.10774,-0.92809 1.00112,-1.03471 -0.123,-0.123 -0.86992,0.1778 -1.19136,0.47978 -0.15925,0.1496 -0.28954,0.37574 -0.28954,0.50253 0,0.27725 0.0408,0.28171 0.47978,0.0524 l 0,0 z"
         style="color:#000000;fill:#fdf100;fill-opacity:1;fill-rule:nonzero;stroke:#00c7fa;stroke-width:1;stroke-linecap:butt;stroke-linejoin:miter;stroke-miterlimit:4;stroke-opacity:1;stroke-dasharray:none;stroke-dashoffset:0;marker:none;visibility:visible;display:inline;overflow:visible;enable-background:accumulate" />
      <path
         inkscape:connector-curvature="0"
         id="path11099"
         d="m 285.65168,439.49519 c -0.24307,-0.0936 -0.70644,-0.17451 -1.02972,-0.17979 -0.55778,-0.009 -0.60444,-0.038 -0.91433,-0.56683 -0.17961,-0.30648 -0.53032,-0.68316 -0.77937,-0.83708 l -0.45282,-0.27986 0.357,-0.23537 c 0.46228,-0.3048 1.01851,-0.29902 1.49342,0.0155 0.47561,0.31498 0.77706,0.31673 1.2843,0.007 0.45317,-0.27633 1.11755,-1.31393 0.98187,-1.53347 -0.14063,-0.22754 -1.21077,-0.0578 -1.4429,0.22886 -0.14688,0.18139 -0.31166,0.22969 -0.64915,0.19029 -0.45593,-0.0532 -1.2017,0.25094 -2.2722,0.92671 -0.27826,0.17566 -0.77231,0.32578 -1.24997,0.37982 l -0.78984,0.0894 0.0919,-0.61271 c 0.2569,-1.71316 1.06848,-3.22576 2.03452,-3.79189 0.29576,-0.17334 1.43215,-0.56954 2.52529,-0.88046 1.9029,-0.54124 3.21113,-1.09271 3.21113,-1.35362 0,-0.0725 -0.21108,-0.0886 -0.51858,-0.0394 l -0.51857,0.0829 0.38158,-0.47716 c 0.20987,-0.2624 0.88707,-1.00271 1.5049,-1.64511 1.23807,-1.2873 1.43016,-1.3653 2.28086,-0.92615 0.68866,0.3555 1.3317,1.09298 1.83654,2.10623 l 0.4464,0.89597 -0.75379,0.74553 c -0.41459,0.41004 -0.90235,0.95969 -1.08392,1.22145 l -0.33011,0.47592 -0.2169,-0.34965 c -0.74196,-1.19613 -2.23508,-1.45656 -3.79328,-0.66163 -0.54064,0.27582 -1.63424,1.21056 -1.63424,1.39685 0,0.0581 0.2699,-0.0102 0.59978,-0.15174 1.22651,-0.52645 2.41042,-0.47046 3.11397,0.14727 0.66131,0.58063 0.69756,1.09419 0.15477,2.19245 -0.34545,0.69897 -0.74319,1.19704 -1.79922,2.25307 -0.74565,0.74566 -1.41685,1.35141 -1.49154,1.34613 -0.0747,-0.005 -0.33469,-0.0862 -0.57776,-0.1798 z"
         style="color:#000000;fill:#fdf100;fill-opacity:1;fill-rule:nonzero;stroke:#00c7fa;stroke-width:1;stroke-linecap:butt;stroke-linejoin:miter;stroke-miterlimit:4;stroke-opacity:1;stroke-dasharray:none;stroke-dashoffset:0;marker:none;visibility:visible;display:inline;overflow:visible;enable-background:accumulate" />
      <path
         inkscape:connector-curvature="0"
         id="path11101"
         d="m 294.50406,429.13712 c -0.16182,-0.58645 -0.26111,-1.19817 -0.22065,-1.35938 0.13173,-0.52486 0.63844,-1.14165 1.02786,-1.25117 0.43614,-0.12265 6.13504,0.0931 7.42829,0.28121 1.07586,0.15651 1.37492,0.30764 1.3235,0.66883 -0.0381,0.26775 -0.10186,0.27778 -2.24894,0.35404 -1.90791,0.0678 -2.33042,0.12136 -3.09359,0.39248 -0.90625,0.32195 -2.162,0.93426 -3.28696,1.60274 l -0.6353,0.37752 -0.29421,-1.06627 z"
         style="color:#000000;fill:#fdf100;fill-opacity:1;fill-rule:nonzero;stroke:#00c7fa;stroke-width:1;stroke-linecap:butt;stroke-linejoin:miter;stroke-miterlimit:4;stroke-opacity:1;stroke-dasharray:none;stroke-dashoffset:0;marker:none;visibility:visible;display:inline;overflow:visible;enable-background:accumulate" />
      <path
         inkscape:connector-curvature="0"
         id="path11103"
         d="m 327.19073,445.95384 c -0.24022,-0.49902 -0.71487,-1.17697 -1.1219,-1.60244 l -0.70553,-0.73747 0.53885,-0.25946 c 0.6529,-0.31439 1.61449,-1.17938 1.89669,-1.70615 0.3185,-0.59454 0.28315,-2.36004 -0.0564,-2.81673 -0.33302,-0.44793 -0.95841,-0.51298 -1.53106,-0.15926 -0.54989,0.33966 -0.61143,0.55204 -0.36179,1.24862 0.28538,0.79629 0.27555,1.92533 -0.0199,2.29024 -0.30858,0.38108 -1.42481,0.58668 -4.2094,0.77533 l -2.22783,0.15093 -0.64853,-0.41617 c -1.15614,-0.74189 -1.27221,-1.19143 -0.58992,-2.28466 1.37591,-2.20461 1.5616,-2.64656 1.67483,-3.98599 0.0663,-0.7843 0.0375,-0.9884 -0.21255,-1.50486 -1.13742,-2.3496 -4.72117,-3.72449 -7.85203,-3.01239 -1.35973,0.30927 -1.92947,0.19937 -2.58981,-0.49953 -0.3976,-0.42081 -0.54176,-0.67722 -0.54176,-0.9636 0,-0.58081 0.28713,-1.14303 0.86919,-1.70199 0.53298,-0.51181 0.66108,-0.82669 0.33631,-0.82669 -0.31988,0 -0.86413,0.28426 -1.74021,0.90891 -0.46771,0.33348 -0.8821,0.60632 -0.92087,0.60632 -0.15356,0 -1.43156,-1.03614 -1.50092,-1.21688 -0.0407,-0.106 -0.074,-0.46338 -0.074,-0.79418 0,-0.67254 0.16471,-0.89007 0.9096,-1.2013 0.5003,-0.20904 4.34031,-0.79541 5.9982,-0.91593 l 1.03629,-0.0753 0.85249,0.55501 c 1.63784,1.06633 2.56432,2.21176 2.2265,2.7527 -0.0692,0.11079 -0.63873,0.42872 -1.26566,0.70651 -0.62692,0.27779 -1.35997,0.60301 -1.629,0.7227 l -0.48914,0.21763 1.57837,-0.0475 c 1.02562,-0.0308 1.76532,-0.11754 2.11224,-0.24761 0.87647,-0.32864 2.28715,-0.48943 3.69613,-0.42132 1.57349,0.0761 2.30716,0.30974 3.06381,0.97577 0.63634,0.56012 0.85069,1.12089 0.85021,2.22419 -2.5e-4,0.62489 -0.0705,0.85936 -0.44194,1.47534 -0.70346,1.16661 -0.57749,1.37789 0.41458,0.69533 1.51641,-1.04332 2.04799,-1.80067 2.04799,-2.91783 0,-1.31194 -0.47668,-2.31706 -1.4245,-3.00365 -0.49788,-0.36067 -0.45693,-0.50488 0.0642,-0.22599 0.14551,0.0779 0.93719,0.81174 1.75927,1.6308 1.23359,1.22905 1.57195,1.65039 1.93685,2.4118 0.24317,0.50742 0.44213,0.99521 0.44213,1.08398 0,0.11029 -0.20993,0.16199 -0.66291,0.16327 -2.37055,0.007 -5.06818,1.62899 -5.77243,3.47146 -0.15908,0.41617 -0.3176,1.02658 -0.35227,1.35646 -0.0552,0.5254 -0.0337,0.59952 0.17399,0.5977 0.13037,-10e-4 0.46432,-0.13013 0.74211,-0.28665 0.44583,-0.25119 0.54317,-0.39536 0.82986,-1.22904 0.63459,-1.84545 1.06371,-2.32313 2.21629,-2.46713 1.03398,-0.12919 2.26528,0.016 2.7673,0.32623 0.62871,0.38857 1.54904,1.46725 1.69123,1.98224 0.136,0.49253 0.0837,0.64259 -0.50848,1.46013 -0.69299,0.95664 -1.25096,3.14256 -1.25096,4.9008 l 0,1.13654 -0.8037,0.78285 -0.8037,0.78285 -0.41638,-0.86496 z"
         style="color:#000000;fill:#fdf100;fill-opacity:1;fill-rule:nonzero;stroke:#00c7fa;stroke-width:1;stroke-linecap:butt;stroke-linejoin:miter;stroke-miterlimit:4;stroke-opacity:1;stroke-dasharray:none;stroke-dashoffset:0;marker:none;visibility:visible;display:inline;overflow:visible;enable-background:accumulate" />
      <path
         inkscape:connector-curvature="0"
         id="path11105"
         d="m 318.40891,462.11211 c -0.87431,-0.40712 -1.09839,-0.89175 -1.11464,-2.41066 -0.0115,-1.08005 0.009,-1.17183 0.39274,-1.75554 0.22272,-0.33875 0.47463,-0.92733 0.5598,-1.30795 l 0.15488,-0.69203 0.72381,0.0819 c 0.71798,0.0812 0.72823,0.0777 1.27092,-0.43856 0.52485,-0.49928 0.53715,-0.52774 0.30218,-0.69955 -0.16788,-0.12276 -0.5974,-0.17909 -1.36551,-0.17909 -0.61632,0 -1.23094,-0.0591 -1.36582,-0.13125 -0.26362,-0.14109 -1.2534,-1.33654 -1.2534,-1.51385 0,-0.059 0.24149,-0.13547 0.53665,-0.17003 3.07125,-0.35957 3.86014,-0.50246 4.50058,-0.81519 0.83903,-0.40971 1.4025,-0.92056 1.4025,-1.27155 0,-0.36264 -0.42049,-0.34758 -1.27985,0.0459 -1.02916,0.47117 -2.80456,0.64366 -4.57036,0.44405 -1.88641,-0.21324 -2.72852,-0.1798 -4.8004,0.19063 -2.32344,0.41541 -3.03369,0.26607 -4.48707,-0.94345 -0.44702,-0.37201 -0.88591,-0.63344 -1.06342,-0.63344 -0.36486,0 -1.3503,0.68639 -1.3503,0.94053 0,0.25471 1.2781,1.33165 2.04189,1.72053 l 0.6385,0.32508 -0.80356,0.28983 c -1.19433,0.43078 -2.37447,1.12729 -3.0014,1.7714 -0.54311,0.55799 -0.57468,0.57138 -1.32583,0.56227 -0.98934,-0.012 -2.68344,-0.65897 -3.38488,-1.29268 -0.93448,-0.84425 -1.46156,-2.3689 -1.23391,-3.56927 0.15536,-0.8192 0.69629,-2.03679 1.0543,-2.37312 0.3911,-0.36742 0.98316,-0.58866 2.73428,-1.02173 1.71384,-0.42386 2.88398,-0.96106 4.22762,-1.94087 1.13485,-0.82755 1.92838,-1.09231 3.54902,-1.18408 1.54116,-0.0873 1.72239,-0.008 2.39542,1.0438 0.36645,0.57286 0.5009,0.6877 0.80515,0.6877 0.81465,0 1.47531,-1.03024 1.31271,-2.04707 -0.0887,-0.55463 -0.0133,-0.57722 1.11756,-0.33499 0.50033,0.10717 0.79295,0.26706 1.15997,0.63382 0.44251,0.4422 0.47264,0.51201 0.30606,0.70899 -1.31329,1.55288 -2.16282,2.99294 -2.0974,3.55531 0.031,0.26615 0.095,0.3174 0.35348,0.28308 0.77528,-0.10293 1.30459,-0.58918 2.02031,-1.85596 0.38196,-0.67606 0.90094,-1.46315 1.15327,-1.7491 l 0.4588,-0.51991 1.44548,-0.0419 c 2.55489,-0.0741 3.52937,0.28607 4.58772,1.69553 0.90111,1.20005 1.18938,2.4701 1.21462,5.35137 0.0234,2.67026 -0.45249,3.5965 -3.30405,6.43086 -1.07645,1.06995 -1.84353,1.90571 -1.70464,1.85724 1.45894,-0.50911 4.59453,-3.27622 5.52762,-4.87804 0.78431,-1.34641 0.99289,-2.19672 1.06805,-4.35413 0.0718,-2.06205 0.10644,-2.1812 1.12499,-3.8743 0.51107,-0.84953 0.9506,-1.05572 1.97489,-0.92644 1.05288,0.1329 1.39497,0.28586 1.98596,0.88805 0.69876,0.71197 1.109,0.74487 1.81718,0.14573 0.58946,-0.49871 0.57046,-0.80578 -0.092,-1.48795 -0.50065,-0.51549 -1.07896,-0.71268 -2.42342,-0.82633 l -0.98137,-0.083 0.0745,-1.4819 c 0.11114,-2.21049 0.62069,-3.87906 1.27574,-4.17752 0.20662,-0.0941 0.55017,-0.0936 1.16284,0.002 2.05618,0.32039 2.81468,0.78394 3.23754,1.97863 0.5089,1.43781 0.57071,3.98003 0.14205,5.84285 -0.56297,2.44648 -2.31181,5.24535 -3.12417,4.99996 -0.38114,-0.11513 -1.09756,-0.54689 -1.46928,-0.8855 -0.46133,-0.42021 -0.97015,-0.58644 -1.28286,-0.41908 -0.27046,0.14475 -0.26877,0.16614 0.0891,1.12563 0.11656,0.31252 0.2392,1.05119 0.27252,1.6415 l 0.0606,1.07328 -0.61399,0.7179 c -0.87112,1.01851 -1.77956,1.78718 -4.60459,3.89614 -4.33888,3.23909 -5.08137,3.64931 -6.61081,3.65236 -0.66694,10e-4 -1.0412,-0.0715 -1.52482,-0.29669 l 0,0 z"
         style="color:#000000;fill:#fdf100;fill-opacity:1;fill-rule:nonzero;stroke:#00c7fa;stroke-width:1;stroke-linecap:butt;stroke-linejoin:miter;stroke-miterlimit:4;stroke-opacity:1;stroke-dasharray:none;stroke-dashoffset:0;marker:none;visibility:visible;display:inline;overflow:visible;enable-background:accumulate" />
    </g>
  </g>
  <g
     inkscape:groupmode="layer"
     id="layer2"
     inkscape:label="eyes"
     style="display:inline"
     transform="translate(0,188.72049)">
    <path
       inkscape:connector-curvature="0"
       style="color:#000000;fill:#ffe1e1;fill-opacity:1;stroke:#000000;stroke-width:4.58949852;stroke-linecap:butt;stroke-linejoin:miter;stroke-miterlimit:4;stroke-opacity:1;stroke-dasharray:none;stroke-dashoffset:0;marker:none;visibility:visible;display:inline;overflow:visible;enable-background:accumulate"
       d="m 98.550029,-153.73424 c -17.857922,0 -33.416966,12.76146 -42.154866,31.86034 -5.437179,-4.60459 -11.870692,-7.29927 -18.757465,-7.29927 -19.55053,0 -35.3429487,21.37972 -35.3429487,47.839877 0,26.460111 15.7924187,47.938506 35.3429487,47.938506 8.531557,0 16.495393,-4.046928 22.607641,-10.850309 9.099966,14.875805 22.891639,24.363812 38.30469,24.363812 27.401001,0 49.657871,-29.910817 49.657871,-66.877164 0,-36.966342 -22.25687,-66.975792 -49.657871,-66.975792 z"
       id="path10020" />
    <g
       id="g11117"
       style="stroke:#fa0000;stroke-opacity:1"
       transform="matrix(4.5894987,0,0,4.5894987,0,-211.17485)">
      <path
         sodipodi:nodetypes="ccccc"
         inkscape:connector-curvature="0"
         id="path11081"
         d="m 5.9346462,19.585974 -0.5682108,4.608821 7.8918166,3.219862 13.005714,2.841054 0.757614,7.071067"
         style="fill:none;stroke:#fa0000;stroke-width:1px;stroke-linecap:butt;stroke-linejoin:miter;stroke-opacity:1" />
      <path
         sodipodi:nodetypes="ccccc"
         inkscape:connector-curvature="0"
         id="path11083"
         d="m 2.9673231,31.518401 2.0203051,-4.293148 5.2401668,2.967323 10.03839,-6.187184 0.883884,-8.586297"
         style="fill:none;stroke:#fa0000;stroke-width:1px;stroke-linecap:butt;stroke-linejoin:miter;stroke-opacity:1" />
      <path
         inkscape:connector-curvature="0"
         id="path11085"
         d="m 28.473675,20.974934 -7.702413,5.492705 -7.639279,-4.924494"
         style="fill:none;stroke:#fa0000;stroke-width:1px;stroke-linecap:butt;stroke-linejoin:miter;stroke-opacity:1" />
      <path
         sodipodi:nodetypes="ccc"
         inkscape:connector-curvature="0"
         id="path11087"
         d="M 5.9346462,36.442895 10.303631,31.77617 10.101526,20.091051"
         style="fill:none;stroke:#fa0000;stroke-width:1px;stroke-linecap:butt;stroke-linejoin:miter;stroke-opacity:1" />
      <path
         sodipodi:nodetypes="cccc"
         inkscape:connector-curvature="0"
         id="path11089"
         d="m 17.172593,35.559011 -3.914341,-5.240166 12.2481,-3.661803 5.113897,1.894036"
         style="fill:none;stroke:#fa0000;stroke-width:1px;stroke-linecap:butt;stroke-linejoin:miter;stroke-opacity:1" />
    </g>
    <g
       id="g11074"
       transform="matrix(4.5894987,0,0,4.5894987,0,-211.17485)">
      <path
         transform="matrix(0.40861776,0,0,0.4113932,-244.14447,-24.94494)"
         d="m 635.17856,131.02289 c 0,8.38289 -5.01681,15.17857 -11.20535,15.17857 -6.18855,0 -11.20536,-6.79568 -11.20536,-15.17857 0,-8.38289 5.01681,-15.17857 11.20536,-15.17857 6.18854,0 11.20535,6.79568 11.20535,15.17857 z"
         sodipodi:ry="15.178571"
         sodipodi:rx="11.205358"
         sodipodi:cy="131.02289"
         sodipodi:cx="623.97321"
         id="path10020-5"
         style="color:#000000;fill:#ffffff;stroke:#000000;stroke-width:2.43900585;stroke-linecap:butt;stroke-linejoin:miter;stroke-miterlimit:4;stroke-opacity:1;stroke-dasharray:none;stroke-dashoffset:0;marker:none;visibility:visible;display:inline;overflow:visible;enable-background:accumulate"
         sodipodi:type="arc" />
      <path
         transform="matrix(0.52532129,0,0,0.5266931,-310.67844,-41.353)"
         d="m 635.17856,131.02289 c 0,8.38289 -5.01681,15.17857 -11.20535,15.17857 -6.18855,0 -11.20536,-6.79568 -11.20536,-15.17857 0,-8.38289 5.01681,-15.17857 11.20536,-15.17857 6.18854,0 11.20535,6.79568 11.20535,15.17857 z"
         sodipodi:ry="15.178571"
         sodipodi:rx="11.205358"
         sodipodi:cy="131.02289"
         sodipodi:cx="623.97321"
         id="path10020-5-0"
         style="color:#000000;fill:#000000;stroke:#000000;stroke-width:1.90111637;stroke-linecap:butt;stroke-linejoin:miter;stroke-miterlimit:4;stroke-opacity:1;stroke-dasharray:none;stroke-dashoffset:0;marker:none;visibility:visible;display:inline;overflow:visible;enable-background:accumulate"
         sodipodi:type="arc" />
      <path
         transform="matrix(0.26822771,0,0,0.27269167,-156.26236,-6.7718695)"
         d="m 635.17856,131.02289 c 0,8.38289 -5.01681,15.17857 -11.20535,15.17857 -6.18855,0 -11.20536,-6.79568 -11.20536,-15.17857 0,-8.38289 5.01681,-15.17857 11.20536,-15.17857 6.18854,0 11.20535,6.79568 11.20535,15.17857 z"
         sodipodi:ry="15.178571"
         sodipodi:rx="11.205358"
         sodipodi:cy="131.02289"
         sodipodi:cx="623.97321"
         id="path10020-5-08-6"
         style="color:#000000;fill:#000000;stroke:#000000;stroke-width:3.69753408;stroke-linecap:butt;stroke-linejoin:miter;stroke-miterlimit:4;stroke-opacity:1;stroke-dasharray:none;stroke-dashoffset:0;marker:none;visibility:visible;display:inline;overflow:visible;enable-background:accumulate"
         sodipodi:type="arc" />
      <path
         transform="matrix(0.40861776,0,0,0.4113932,-239.65794,-25.84693)"
         d="m 635.17856,131.02289 c 0,8.38289 -5.01681,15.17857 -11.20535,15.17857 -6.18855,0 -11.20536,-6.79568 -11.20536,-15.17857 0,-8.38289 5.01681,-15.17857 11.20536,-15.17857 6.18854,0 11.20535,6.79568 11.20535,15.17857 z"
         sodipodi:ry="15.178571"
         sodipodi:rx="11.205358"
         sodipodi:cy="131.02289"
         sodipodi:cx="623.97321"
         id="path10020-5-1"
         style="color:#000000;fill:#ffffff;fill-opacity:1;stroke:#000000;stroke-width:2.43900585;stroke-linecap:butt;stroke-linejoin:miter;stroke-miterlimit:4;stroke-opacity:1;stroke-dasharray:none;stroke-dashoffset:0;marker:none;visibility:visible;display:inline;overflow:visible;enable-background:accumulate"
         sodipodi:type="arc" />
      <path
         transform="matrix(0.26822771,0,0,0.27269167,-151.77583,-7.6738495)"
         d="m 635.17856,131.02289 c 0,8.38289 -5.01681,15.17857 -11.20535,15.17857 -6.18855,0 -11.20536,-6.79568 -11.20536,-15.17857 0,-8.38289 5.01681,-15.17857 11.20536,-15.17857 6.18854,0 11.20535,6.79568 11.20535,15.17857 z"
         sodipodi:ry="15.178571"
         sodipodi:rx="11.205358"
         sodipodi:cy="131.02289"
         sodipodi:cx="623.97321"
         id="path10020-5-08-6-5"
         style="color:#000000;fill:#000000;stroke:#000000;stroke-width:3.69753408;stroke-linecap:butt;stroke-linejoin:miter;stroke-miterlimit:4;stroke-opacity:1;stroke-dasharray:none;stroke-dashoffset:0;marker:none;visibility:visible;display:inline;overflow:visible;enable-background:accumulate"
         sodipodi:type="arc" />
    </g>
  </g>
</svg>
